Coordinates
version=1
nRows=12
nColumns=23
inDegrees=yes

Units are S.I. units (second, meters, Newtons, ...)
If the header above contains a line with 'inDegrees', this indicates whether rotational values are in degrees (yes) or radians (no).

endheader
time	pelvis_tilt	pelvis_list	pelvis_rotation	pelvis_tx	pelvis_ty	pelvis_tz	hip_flexion_r	hip_adduction_r	hip_rotation_r	knee_angle_r	knee_angle_r_beta	ankle_angle_r	subtalar_angle_r	mtp_angle_r	hip_flexion_l	hip_adduction_l	hip_rotation_l	knee_angle_l	knee_angle_l_beta	ankle_angle_l	subtalar_angle_l	mtp_angle_l
      0.00000000	     -2.70639073	    -12.85886401	    -10.71612690	      2.21313166	      1.03883094	      1.05885284	     27.79507133	     14.49535522	     -9.45586785	     48.02009055	      0.83810869	     13.16589347	    -12.17059760	      0.00000000	      2.58554184	    -17.18872497	    -10.92884756	    111.86301461	      1.95237792	     -1.58716968	    -20.47477440	      0.00000000
      0.00666667	     -2.60751042	    -12.86555606	    -10.07826380	      2.21047649	      1.04005563	      1.05831819	     25.81836835	     14.01697305	     -9.62433806	     47.83260437	      0.83483644	     14.55832892	    -11.69774262	      0.00000000	      6.04358760	    -17.12674214	     -8.50088123	    113.40184729	      1.97923561	     -0.33854474	    -18.42871785	      0.00000000
      0.01333333	     -2.72951198	    -12.62786204	     -9.33015137	      2.20783240	      1.04080464	      1.05748510	     24.13840651	     13.22176512	    -10.00981815	     47.68432487	      0.83224847	     16.45984657	    -10.65341525	      0.00000000	      9.84724580	    -16.55570354	     -5.91450827	    114.78218694	      2.00332708	      0.73395453	    -16.61785317	      0.00000000
      0.02000000	     -2.85260078	    -12.39352554	     -8.56164436	      2.20539370	      1.04161993	      1.05667278	     22.32924865	     12.50097459	    -10.36260581	     47.24895478	      0.82464983	     17.93920009	     -9.88674841	      0.00000000	     13.56041528	    -15.87247469	     -3.42633957	    115.88530489	      2.02258013	      1.78285951	    -14.66163570	      0.00000000
      0.02666667	     -2.74993727	    -12.08457836	     -7.69074504	      2.20306749	      1.04288294	      1.05579310	     20.19865972	     11.74013680	    -10.66416880	     46.59987789	      0.81332130	     19.19532103	     -9.52818399	      0.00000000	     16.94580495	    -14.90743052	     -1.04397256	    116.62316652	      2.03545824	      2.61421040	    -12.98731598	      0.00000000
      0.03333333	     -2.94082319	    -11.71088917	     -6.98747841	      2.20100345	      1.04404892	      1.05521862	     18.32380191	     10.98469734	    -11.08597500	     45.90603501	      0.80121146	     21.03395643	     -7.58696885	      0.00000000	     20.47290761	    -13.91928064	      1.01090428	    117.03098154	      2.04257595	      3.64220936	    -10.88234900	      0.00000000
      0.04000000	     -2.90240751	    -11.20382377	     -6.21307051	      2.19930402	      1.04600877	      1.05460377	     16.01659538	     10.20131384	    -11.28387227	     44.75048729	      0.78104335	     21.69291435	     -7.17527004	      0.00000000	     23.56299186	    -12.65143451	      2.80886481	    116.94649884	      2.04110145	      4.38632410	     -9.38843139	      0.00000000
      0.04666667	     -2.92503072	    -10.70779243	     -5.56458199	      2.19796788	      1.04829785	      1.05430304	     13.64909019	      9.50749254	    -11.52991747	     43.39506691	      0.75738680	     22.38323845	     -5.86992005	      0.00000000	     26.49535758	    -11.49015714	      4.25303727	    116.48030487	      2.03296483	      5.34829998	     -7.63499496	      0.00000000
      0.05333333	     -3.01886789	    -10.01510732	     -4.93704422	      2.19689443	      1.05090317	      1.05399156	     11.29071241	      8.69436291	    -11.68035330	     41.83154742	      0.73009823	     22.57793006	     -5.26792291	      0.00000000	     29.29805086	    -10.06404241	      5.37781830	    115.58092825	      2.01726775	      6.08368995	     -6.58574216	      0.00000000
      0.06000000	     -3.10144222	     -9.26359743	     -4.40741093	      2.19625947	      1.05392596	      1.05387114	      8.80735752	      7.87128847	    -11.85290754	     40.03682296	      0.69877438	     22.32699881	     -4.39603261	      0.00000000	     31.82284097	     -8.68581557	      6.11743010	    114.27629472	      1.99449760	      6.89810568	     -5.75884020	      0.00000000
      0.06666667	     -2.88694681	     -8.38147130	     -3.95408022	      2.19612536	      1.05772806	      1.05387627	      5.90661633	      6.93282945	    -12.01651505	     38.03007793	      0.66375007	     21.87641440	     -3.35331986	      0.00000000	     33.71111506	     -7.27096208	      6.42275567	    112.51659109	      1.96378498	      7.61386630	     -5.47890728	      0.00000000
      0.07333333	     -3.08074690	     -7.41338410	     -3.59485424	      2.19616961	      1.06119964	      1.05392585	      3.45464047	      5.95509185	    -12.24381301	     35.96397130	      0.62768971	     20.78622247	     -2.56816980	      0.00000000	     35.87619792	     -5.83609952	      6.50784744	    110.48430602	      1.92831491	      8.29651355	     -5.65859469	      0.00000000
